<?xml version="1.0" encoding="utf-8"?>
<!-- Generator: Adobe Illustrator 15.0.0, SVG Export Plug-In . SVG Version: 6.00 Build 0)  -->
<!DOCTYPE svg PUBLIC "-//W3C//DTD SVG 1.1//EN" "http://www.w3.org/Graphics/SVG/1.1/DTD/svg11.dtd">
<svg version="1.1" id="Layer_1" xmlns="http://www.w3.org/2000/svg" xmlns:xlink="http://www.w3.org/1999/xlink" x="0px" y="0px"
	 width="85px" height="85px" viewBox="0 0 85 85" enable-background="new 0 0 85 85" xml:space="preserve">
<g>
	<g>
		
			<path fill="none" stroke="#394553" stroke-width="2.5" stroke-linecap="round" stroke-linejoin="round" stroke-miterlimit="10" d="
			M42.501,26.004c2.995-5.695,9.218-7.265,15.688-7.265h9.488v39.84h-9.488c-6.471,0-12.693,1.569-15.688,7.265"/>
		
			<path fill="none" stroke="#394553" stroke-width="2.5" stroke-linecap="round" stroke-linejoin="round" stroke-miterlimit="10" d="
			M23.06,18.739h-5.736v39.84h9.486c6.471,0,12.695,1.569,15.691,7.265"/>
		
			<path fill="none" stroke="#394553" stroke-width="2.5" stroke-linecap="round" stroke-linejoin="round" stroke-miterlimit="10" d="
			M42.501,26.004c-2.234-4.248-6.266-6.2-10.852-6.918"/>
	</g>
	
		<line fill="none" stroke="#394553" stroke-width="2.5" stroke-linecap="round" stroke-linejoin="round" stroke-miterlimit="10" x1="42.501" y1="26.471" x2="42.501" y2="64.316"/>
	<polygon fill="none" stroke="#394553" stroke-width="2.5" stroke-miterlimit="10" points="31.243,29.708 27.356,26.763 
		23.493,29.708 23.493,17.438 31.243,17.438 	"/>
	<path fill="none" stroke="#394553" stroke-width="2.5" stroke-linecap="round" stroke-linejoin="round" stroke-miterlimit="10" d="
		M73.84,24.519v40.048H50.848c0,0-1.275,2.994-2.857,2.994c-0.396,0-10.583,0-10.979,0c-1.584,0-2.857-2.994-2.857-2.994H11.159
		V24.519"/>
</g>
</svg>
