<?xml version="1.0" encoding="utf-8"?>
<!-- Generator: Adobe Illustrator 15.0.0, SVG Export Plug-In . SVG Version: 6.00 Build 0)  -->
<!DOCTYPE svg PUBLIC "-//W3C//DTD SVG 1.1//EN" "http://www.w3.org/Graphics/SVG/1.1/DTD/svg11.dtd">
<svg version="1.1" id="Layer_1" xmlns="http://www.w3.org/2000/svg" xmlns:xlink="http://www.w3.org/1999/xlink" x="0px" y="0px"
	 width="85px" height="85px" viewBox="0 0 85 85" enable-background="new 0 0 85 85" xml:space="preserve">
<g>
	
		<line fill="none" stroke="#394553" stroke-width="2.5" stroke-linejoin="round" stroke-miterlimit="10" x1="21.032" y1="35.803" x2="63.937" y2="35.803"/>
	<g>
		<path fill="none" stroke="#394553" stroke-width="2.5" stroke-linejoin="round" stroke-miterlimit="10" d="M59.94,21.547h5.527
			c1.65,0,3,1.351,3,3v41.277c0,1.65-1.35,3-3,3H19.5c-1.649,0-3-1.35-3-3V24.547c0-1.649,1.351-3,3-3h8.254"/>
		
			<line fill="none" stroke="#394553" stroke-width="2.5" stroke-linejoin="round" stroke-miterlimit="10" x1="46.813" y1="21.547" x2="54.001" y2="21.547"/>
		
			<line fill="none" stroke="#394553" stroke-width="2.5" stroke-linejoin="round" stroke-miterlimit="10" x1="33.689" y1="21.547" x2="40.876" y2="21.547"/>
		
			<line fill="none" stroke="#394553" stroke-width="2.5" stroke-linecap="round" stroke-miterlimit="10" x1="27.959" y1="16.172" x2="27.959" y2="27.812"/>
		
			<line fill="none" stroke="#394553" stroke-width="2.5" stroke-linecap="round" stroke-miterlimit="10" x1="54.208" y1="16.172" x2="54.208" y2="27.812"/>
		
			<line fill="none" stroke="#394553" stroke-width="2.5" stroke-linecap="round" stroke-miterlimit="10" x1="41.083" y1="16.172" x2="41.083" y2="27.812"/>
	</g>
	<g>
		<g>
			<g>
				
					<rect x="34.067" y="51.693" fill="#3A4553" stroke="#394553" stroke-width="2.5" stroke-miterlimit="10" width="0.86" height="0.859"/>
			</g>
			<g>
				
					<rect x="26.081" y="51.693" fill="#3A4553" stroke="#394553" stroke-width="2.5" stroke-miterlimit="10" width="0.859" height="0.859"/>
			</g>
			<g>
				
					<rect x="42.053" y="51.693" fill="#3A4553" stroke="#394553" stroke-width="2.5" stroke-miterlimit="10" width="0.861" height="0.859"/>
			</g>
			<g>
				
					<rect x="50.04" y="51.693" fill="#3A4553" stroke="#394553" stroke-width="2.5" stroke-miterlimit="10" width="0.861" height="0.859"/>
			</g>
			<g>
				
					<rect x="58.026" y="51.693" fill="#3A4553" stroke="#394553" stroke-width="2.5" stroke-miterlimit="10" width="0.861" height="0.859"/>
			</g>
		</g>
		<g>
			<g>
				
					<rect x="34.067" y="43.709" fill="#3A4553" stroke="#394553" stroke-width="2.5" stroke-miterlimit="10" width="0.86" height="0.861"/>
			</g>
			<g>
				
					<rect x="42.053" y="43.709" fill="#3A4553" stroke="#394553" stroke-width="2.5" stroke-miterlimit="10" width="0.861" height="0.861"/>
			</g>
			<g>
				
					<rect x="50.04" y="43.709" fill="#3A4553" stroke="#394553" stroke-width="2.5" stroke-miterlimit="10" width="0.861" height="0.861"/>
			</g>
			<g>
				
					<rect x="58.026" y="43.709" fill="#3A4553" stroke="#394553" stroke-width="2.5" stroke-miterlimit="10" width="0.861" height="0.861"/>
			</g>
		</g>
		<g>
			<g>
				
					<rect x="34.067" y="59.676" fill="#3A4553" stroke="#394553" stroke-width="2.5" stroke-miterlimit="10" width="0.86" height="0.861"/>
			</g>
			<g>
				
					<rect x="26.081" y="59.676" fill="#3A4553" stroke="#394553" stroke-width="2.5" stroke-miterlimit="10" width="0.859" height="0.861"/>
			</g>
			<g>
				
					<rect x="42.053" y="59.676" fill="#3A4553" stroke="#394553" stroke-width="2.5" stroke-miterlimit="10" width="0.861" height="0.861"/>
			</g>
			<g>
				
					<rect x="50.04" y="59.676" fill="#3A4553" stroke="#394553" stroke-width="2.5" stroke-miterlimit="10" width="0.861" height="0.861"/>
			</g>
		</g>
	</g>
</g>
</svg>
