<?xml version="1.0" encoding="utf-8"?>
<!-- Generator: Adobe Illustrator 15.0.0, SVG Export Plug-In . SVG Version: 6.00 Build 0)  -->
<!DOCTYPE svg PUBLIC "-//W3C//DTD SVG 1.1//EN" "http://www.w3.org/Graphics/SVG/1.1/DTD/svg11.dtd">
<svg version="1.1" id="Layer_1" xmlns="http://www.w3.org/2000/svg" xmlns:xlink="http://www.w3.org/1999/xlink" x="0px" y="0px"
	 width="85px" height="85px" viewBox="0 0 85 85" enable-background="new 0 0 85 85" xml:space="preserve">
<g>
	<path fill="none" stroke="#394553" stroke-width="2.5" stroke-linecap="round" stroke-linejoin="round" stroke-miterlimit="10" d="
		M32.807,35.742l-13.799,7.754c0,0,15.224,10.475,10.915,19.092c0,0-9.098,9.416-17.235-2.143c-2.473-3.514,0.287-9.295,3.769-8.639
		c3.267,0.617,4.927,3.154,5.452,6.701l2.963-1.863"/>
	<path fill="none" stroke="#394553" stroke-width="2.5" stroke-linecap="round" stroke-linejoin="round" stroke-miterlimit="10" d="
		M47.948,50.215c2.613-3.107,1.512-8.208,1.512-8.208c-1.242-9.181-12.241-8.916-12.241-8.916l25.354-14.297
		c0,0,9.432-0.287,10.533,7.852c0,0,1.244,4.692-1.34,7.277L27.828,64.262"/>
	<path fill="none" stroke="#394553" stroke-width="2.5" stroke-linecap="round" stroke-linejoin="round" stroke-miterlimit="10" d="
		M54.8,45.605c2.457-3.249,1.283-7.962,1.283-7.962c-1.438-9.034-11.562-8.685-11.562-8.685"/>
	<path fill="none" stroke="#394553" stroke-width="2.5" stroke-linecap="round" stroke-linejoin="round" stroke-miterlimit="10" d="
		M52.103,47.789c0,0-5.039,8.934-5.168,11.453c-0.131,2.52,1.803,4.666,4.322,4.797s4.666-1.805,4.799-4.324
		c0.027-0.562-0.154-1.469-0.453-2.537"/>
	<path fill="none" stroke="#394553" stroke-width="2.5" stroke-linecap="round" stroke-linejoin="round" stroke-miterlimit="10" d="
		M61.845,55.754c-2.396-0.791-9.686-8.006-9.686-8.006s10.15-1.459,12.547-0.668s3.697,3.371,2.906,5.768
		S64.237,56.543,61.845,55.754z"/>
	
		<line fill="none" stroke="#394553" stroke-width="2.5" stroke-linecap="round" stroke-linejoin="round" stroke-miterlimit="10" x1="14.189" y1="52.293" x2="23.036" y2="47.129"/>
</g>
</svg>
