<?xml version="1.0" encoding="utf-8"?>
<!-- Generator: Adobe Illustrator 15.0.0, SVG Export Plug-In . SVG Version: 6.00 Build 0)  -->
<!DOCTYPE svg PUBLIC "-//W3C//DTD SVG 1.1//EN" "http://www.w3.org/Graphics/SVG/1.1/DTD/svg11.dtd">
<svg version="1.1" id="Layer_1" xmlns="http://www.w3.org/2000/svg" xmlns:xlink="http://www.w3.org/1999/xlink" x="0px" y="0px"
	 width="85px" height="85px" viewBox="0 0 85 85" enable-background="new 0 0 85 85" xml:space="preserve">
<g>
	
		<polyline fill="none" stroke="#394553" stroke-width="2.5" stroke-linecap="round" stroke-linejoin="round" stroke-miterlimit="10" points="
		62.607,29.802 62.607,17.042 42.5,11.3 22.392,17.075 42.5,23.665 61.898,17.339 	"/>
	<path fill="none" stroke="#394553" stroke-width="2.5" stroke-linejoin="round" stroke-miterlimit="10" d="M29.915,24.054v2.395
		c2.916,2.568,7.523,4.214,12.585,4.214c5.06,0,9.667-1.646,12.583-4.214v-6.796"/>
	<g>
		<path fill="none" stroke="#394553" stroke-width="2.5" stroke-linejoin="round" stroke-miterlimit="10" d="M31.59,32.531
			c0.768,8.066,5.267,14.672,10.796,14.672c5.561,0,10.029-6.605,10.795-14.672c0.158-1.657,0.258-3.253,0.221-4.744"/>
	</g>
	<path fill="none" stroke="#394553" stroke-width="2.5" stroke-linecap="round" stroke-linejoin="round" stroke-miterlimit="10" d="
		M69.572,73.701l-1.015-13.508c-1.002-7.458-5.485-8.289-5.485-8.289s-4.881-1.379-10.065-2.246L42.5,63.682L31.993,49.658
		c-5.185,0.867-10.066,2.246-10.066,2.246s-4.483,0.831-5.485,8.289l-1.014,13.508"/>
	
		<line fill="none" stroke="#394553" stroke-width="2.5" stroke-linecap="round" stroke-linejoin="round" stroke-miterlimit="10" x1="53.15" y1="60.902" x2="60.4" y2="60.902"/>
</g>
</svg>
