<?xml version="1.0" encoding="utf-8"?>
<!-- Generator: Adobe Illustrator 15.0.0, SVG Export Plug-In . SVG Version: 6.00 Build 0)  -->
<!DOCTYPE svg PUBLIC "-//W3C//DTD SVG 1.1//EN" "http://www.w3.org/Graphics/SVG/1.1/DTD/svg11.dtd">
<svg version="1.1" id="Layer_1" xmlns="http://www.w3.org/2000/svg" xmlns:xlink="http://www.w3.org/1999/xlink" x="0px" y="0px"
	 width="85px" height="85px" viewBox="0 0 85 85" enable-background="new 0 0 85 85" xml:space="preserve">
<g>
	<path fill="none" stroke="#394553" stroke-width="2.5" stroke-linejoin="round" stroke-miterlimit="10" d="M26.464,45.069
		c-2.477-3.579-3.93-7.921-3.93-12.604c0-12.246,9.928-22.171,22.173-22.171c12.254,0,22.18,9.925,22.18,22.171
		c0,4.958-1.627,9.535-4.375,13.226"/>
	<polyline fill="none" stroke="#394553" stroke-width="2.5" stroke-linejoin="round" stroke-miterlimit="10" points="25.053,22.939 
		31.223,29.008 30.223,34.258 33.848,36.383 36.39,45.301 43.598,32.133 36.098,28.258 31.223,28.633 30.723,24.633 36.973,20.383 
		36.723,12.265 	"/>
	<path fill="none" stroke="#394553" stroke-width="2.5" stroke-linejoin="round" stroke-miterlimit="10" d="M66.479,29.775
		l-5.289,7.716l-2.25,3.305l-2.193-9.164l-2.523-0.125c0,0-6.125-2.25-0.875-6.625l6.375-0.75l2.5-4.875l-8.125,0.875l-2.23-1.375
		l2.18-6.135"/>
	<g>
		<path fill="none" stroke="#394553" stroke-width="2.5" stroke-linejoin="round" stroke-miterlimit="10" d="M57.527,53.959
			l12.156-6.213c2.35-1.262,5.105-0.756,6.242,1.359c1.133,2.115,0.139,4.879-2.211,6.141l-25.223,13.52L47.158,69.1l-23.524,0.637
			c0,0-3.029,0.848-6.668,4.97"/>
		<path fill="none" stroke="#394553" stroke-width="2.5" stroke-miterlimit="10" d="M8.606,62.34l10.67-9.821
			c5.215-3.517,11.398-1.576,11.398-1.576c2.993,0.788,8.555,0.966,8.555,0.966h9.233c2.75,0,5,1.964,5,4.365
			c0,2.4-2.25,4.364-5,4.364H35.689"/>
	</g>
</g>
</svg>
