<?xml version="1.0" encoding="utf-8"?>
<!-- Generator: Adobe Illustrator 15.0.0, SVG Export Plug-In . SVG Version: 6.00 Build 0)  -->
<!DOCTYPE svg PUBLIC "-//W3C//DTD SVG 1.1//EN" "http://www.w3.org/Graphics/SVG/1.1/DTD/svg11.dtd">
<svg version="1.1" id="Layer_1" xmlns="http://www.w3.org/2000/svg" xmlns:xlink="http://www.w3.org/1999/xlink" x="0px" y="0px"
	 width="85px" height="85px" viewBox="0 0 85 85" enable-background="new 0 0 85 85" xml:space="preserve">
<g>
	<g>
		<g>
			<path fill="none" stroke="#394553" stroke-width="2.5" stroke-linejoin="round" stroke-miterlimit="10" d="M50.909,52.234v17.881
				c0,1.514-1.238,2.752-2.752,2.752H20.032c-1.516,0-2.753-1.238-2.753-2.752v-55.23c0-1.514,1.237-2.752,2.753-2.752h28.125
				c1.514,0,2.752,1.238,2.752,2.752v6.141"/>
			
				<line fill="none" stroke="#394553" stroke-width="2.5" stroke-linejoin="round" stroke-miterlimit="10" x1="17.269" y1="60.951" x2="50.909" y2="60.951"/>
			
				<line fill="none" stroke="#394553" stroke-width="2.5" stroke-linecap="round" stroke-linejoin="round" stroke-miterlimit="10" x1="31.809" y1="66.781" x2="36.381" y2="66.781"/>
		</g>
		
			<line fill="none" stroke="#394553" stroke-width="2.5" stroke-linejoin="round" stroke-miterlimit="10" x1="17.272" y1="60.951" x2="50.912" y2="60.951"/>
	</g>
	<g>
		
			<polyline fill="none" stroke="#394553" stroke-width="2.5" stroke-linecap="round" stroke-linejoin="round" stroke-miterlimit="10" points="
			67.732,44.229 67.732,30.624 46.296,24.502 24.859,30.659 46.296,37.685 66.977,30.941 		"/>
		<path fill="none" stroke="#394553" stroke-width="2.5" stroke-linejoin="round" stroke-miterlimit="10" d="M34.703,38.66v5.391
			c2.686,2.553,6.931,4.189,11.594,4.189c4.661,0,8.905-1.637,11.592-4.189v-9.858"/>
	</g>
</g>
</svg>
