<?xml version="1.0" encoding="utf-8"?>
<!-- Generator: Adobe Illustrator 15.0.0, SVG Export Plug-In . SVG Version: 6.00 Build 0)  -->
<!DOCTYPE svg PUBLIC "-//W3C//DTD SVG 1.1//EN" "http://www.w3.org/Graphics/SVG/1.1/DTD/svg11.dtd">
<svg version="1.1" id="Layer_1" xmlns="http://www.w3.org/2000/svg" xmlns:xlink="http://www.w3.org/1999/xlink" x="0px" y="0px"
	 width="85px" height="85px" viewBox="0 0 85 85" enable-background="new 0 0 85 85" xml:space="preserve">
<g>
	
		<polygon fill="none" stroke="#394553" stroke-width="2.5" stroke-linecap="round" stroke-linejoin="round" stroke-miterlimit="10" points="
		72.315,73 36.148,73 36.148,12 	"/>
	
		<polygon fill="none" stroke="#394553" stroke-width="2.5" stroke-linecap="round" stroke-linejoin="round" stroke-miterlimit="10" points="
		46.148,63 46.148,48.475 54.761,63 	"/>
	<line fill="none" stroke="#394553" stroke-width="2.5" stroke-miterlimit="10" x1="41.023" y1="28.166" x2="36.398" y2="28.166"/>
	<line fill="none" stroke="#394553" stroke-width="2.5" stroke-miterlimit="10" x1="41.023" y1="35.678" x2="36.398" y2="35.678"/>
	<line fill="none" stroke="#394553" stroke-width="2.5" stroke-miterlimit="10" x1="41.023" y1="43.189" x2="36.398" y2="43.189"/>
	<line fill="none" stroke="#394553" stroke-width="2.5" stroke-miterlimit="10" x1="41.023" y1="50.701" x2="36.398" y2="50.701"/>
	<line fill="none" stroke="#394553" stroke-width="2.5" stroke-miterlimit="10" x1="41.023" y1="58.212" x2="36.398" y2="58.212"/>
	<line fill="none" stroke="#394553" stroke-width="2.5" stroke-miterlimit="10" x1="41.023" y1="65.724" x2="36.398" y2="65.724"/>
	<g>
		
			<line fill="none" stroke="#394553" stroke-width="2.5" stroke-linejoin="round" stroke-miterlimit="10" x1="23.692" y1="64.802" x2="16.692" y2="64.802"/>
		<path fill="none" stroke="#394553" stroke-width="2.5" stroke-miterlimit="10" d="M24.208,12.419l-8.03,0
			c-1.921,0-3.492,1.571-3.492,3.492v4.028l15.015,0v-4.027C27.7,13.992,26.128,12.42,24.208,12.419z"/>
		<polyline fill="none" stroke="#394553" stroke-width="2.5" stroke-linejoin="round" stroke-miterlimit="10" points="
			27.659,24.568 27.659,57.018 20.157,73 12.726,57.029 12.726,24.361 		"/>
		
			<line fill="none" stroke="#394553" stroke-width="2.5" stroke-linejoin="round" stroke-miterlimit="10" x1="20.192" y1="56.085" x2="20.192" y2="24.36"/>
		
			<line fill="none" stroke="#394553" stroke-width="2.5" stroke-linejoin="round" stroke-miterlimit="10" x1="27.571" y1="56.086" x2="12.813" y2="56.086"/>
	</g>
</g>
</svg>
