<?xml version="1.0" encoding="UTF-8"?>
<!DOCTYPE svg PUBLIC "-//W3C//DTD SVG 1.1//EN" "http://www.w3.org/Graphics/SVG/1.1/DTD/svg11.dtd">
<!-- Creator: CorelDRAW -->
<svg xmlns="http://www.w3.org/2000/svg" xml:space="preserve" width="6.82666in" height="6.82666in" style="shape-rendering:geometricPrecision; text-rendering:geometricPrecision; image-rendering:optimizeQuality; fill-rule:evenodd; clip-rule:evenodd"
viewBox="0 0 6.82666 6.82666"
 xmlns:xlink="http://www.w3.org/1999/xlink">
 <defs>
  <style type="text/css">
   <![CDATA[
    .fil0 {fill:none}
    .fil2 {fill:#424242}
    .fil1 {fill:#424242;fill-rule:nonzero}
   ]]>
  </style>
 </defs>
 <g id="Layer_x0020_1">
  <metadata id="CorelCorpID_0Corel-Layer"/>
  <rect class="fil0" x="0.853331" y="0.853331" width="5.12" height="5.12"/>
  <path class="fil1" d="M3.19333 2.13363l2.57334 0c0.0568583,0 0.108476,0.023185 0.145827,0.0605354l-0.000208661 0.000208661c0.0374843,0.0375827 0.0607441,0.0891378 0.0607441,0.145618l0 1.93334c0,0.0564803 -0.0232598,0.108035 -0.0607441,0.145618l0.000208661 0.000208661c-0.0373504,0.0373504 -0.0889685,0.0605354 -0.145827,0.0605354l-1.67019 0 0 -0.212732 1.66381 0 0 -1.9206 -2.5606 0 0 0.853634 -0.212732 0 0 -0.860004c0,-0.0564803 0.0232598,-0.108035 0.0607441,-0.145618l-0.000208661 -0.000208661c0.0373504,-0.0373504 0.0889685,-0.0605354 0.145827,-0.0605354z"/>
  <path class="fil2" d="M1.67046 3.41704l0.274516 0 0.241764 0.39561 0.24072 -0.39561 0.285827 0c0,0 0.661094,-0.00859449 0.708972,0.561661l0 0.0746378 0.258248 -0.176492 0.0301457 -0.0210512c0.256913,-0.199228 0.50652,0.119957 0.31313,0.313303 -0.000409449,0.000409449 -0.143425,0.0972598 -0.143425,0.0972598l-0.199697 0.133433 -0.379772 0.252902c-0.128374,0.0794252 -0.317098,-0.0285748 -0.317098,-0.193661l0 -0.390488 -0.21089 0 0.000429134 0.935217 -1.17333 0 0.00046063 -0.929508 -0.210803 0c0,0.249661 0,0.499327 0,0.748988 0,0.289898 -0.438244,0.288913 -0.438244,0l0 -0.844744c-0.000185039,0 -0.0267402,-0.54765 0.719051,-0.561457z"/>
  <polygon class="fil1" points="5.0839,2.97746 4.0618,3.78054 4.13254,3.92448 5.15464,3.12141 "/>
  <path class="fil1" d="M2.18942 2.2094c0.14726,0 0.280594,0.0597008 0.37711,0.156217 0.0965197,0.0965197 0.15622,0.229854 0.15622,0.377114 0,0.14726 -0.0597008,0.280598 -0.156217,0.377114 -0.0965197,0.0965197 -0.229854,0.15622 -0.377114,0.15622 -0.147268,0 -0.280602,-0.0597008 -0.377114,-0.15622 -0.0965197,-0.0965118 -0.15622,-0.22985 -0.15622,-0.377114 0,-0.14726 0.0597008,-0.280594 0.15622,-0.377114 0.0965157,-0.0965157 0.229854,-0.156217 0.377114,-0.156217z"/>
  <rect class="fil0" width="6.82666" height="6.82666"/>
 </g>
 <rect class="fil0" width="6.82666" height="6.82666"/>
</svg>
