<?xml version="1.0" encoding="UTF-8"?>
<!DOCTYPE svg PUBLIC "-//W3C//DTD SVG 1.1//EN" "http://www.w3.org/Graphics/SVG/1.1/DTD/svg11.dtd">
<!-- Creator: CorelDRAW -->
<svg xmlns="http://www.w3.org/2000/svg" xml:space="preserve" width="6.82666in" height="6.82666in" style="shape-rendering:geometricPrecision; text-rendering:geometricPrecision; image-rendering:optimizeQuality; fill-rule:evenodd; clip-rule:evenodd"
viewBox="0 0 6.82666 6.82666"
 xmlns:xlink="http://www.w3.org/1999/xlink">
 <defs>
  <style type="text/css">
   <![CDATA[
    .fil1 {fill:none}
    .fil0 {fill:#424242;fill-rule:nonzero}
   ]]>
  </style>
 </defs>
 <g id="Layer_x0020_1">
  <metadata id="CorelCorpID_0Corel-Layer"/>
  <path class="fil0" d="M4.22742 4.47091c-0.195531,0.0334685 -0.386878,0.0810276 -0.563362,0.147118l-0.14372 0.0538189 -1.1811e-005 -0.153681 -0.000216535 -2.61762 -7.87402e-006 -0.0714449 0.0660236 -0.0271614 1.28432 -0.528327 0.147079 -0.0605 0 0.159106 -2.3622e-005 2.92613 -3.93701e-006 0.103295 -0.103201 0.00325197c-0.221705,0.00698031 -0.45602,0.0264921 -0.686878,0.0660118z"/>
  <path class="fil0" d="M5.92785 5.01286l0.0214606 0.00209843 -0.0222402 -0.00221654c0.00034252,3.54331e-005 0.000594488,7.48031e-005 0.000779528,0.00011811z"/>
  <polygon class="fil0" points="2.92743,5.43326 2.87137,5.40372 2.92734,5.43343 "/>
  <path class="fil0" d="M0.903067 5.01245l0.000228346 -9.84252e-005c-0.00239764,0.000255906 -0.00644882,0.000665354 -0.00369685,0.000393701l0.000417323 0 0.00305118 -0.000295276z"/>
  <path class="fil0" d="M5.86665 1.90175l-0.410453 0.122717 0 2.63646 -0.000346457 0c0.000110236,0.0222441 -0.00549606,0.148933 -0.148488,0.148933 -0.332886,0 -0.650583,0.0120354 -0.956713,0.0659961 -0.302445,0.053315 -0.595598,0.147886 -0.884437,0.313126l-0.0529291 0.0302795 -0.0529055 -0.0302795c-0.293417,-0.167933 -0.589953,-0.262528 -0.895673,-0.315165 -0.309307,-0.0532559 -0.630835,-0.0639567 -0.968697,-0.0639567 -0.115831,0 -0.124748,-0.104705 -0.125173,-0.130783l-0.000370079 0 0 -2.65463 -0.410476 -0.122713 0 3.10539c0.346476,-0.0310512 0.772531,-0.0443661 1.17527,-0.00137402 0.329461,0.0351693 0.64463,0.108028 0.892079,0.23935l-9.05512e-005 0.000173228 0.00716929 0.00377559c0.0573937,0.0302717 0.286906,0.151335 0.378929,0.151335 0.0920236,0 0.321724,-0.12115 0.379024,-0.15137l0.00710236 -0.00374016 -9.05512e-005 -0.000173228c0.247378,-0.131319 0.562531,-0.204177 0.89198,-0.239343 0.402744,-0.0429961 0.828839,-0.0296772 1.17529,0.00136614l0 -3.10537z"/>
  <path class="fil0" d="M2.60356 4.47091c-0.230862,-0.0395236 -0.465189,-0.0590354 -0.686913,-0.0660157l-0.103622 -0.00326378 0 -0.103283 0 -2.92613 0 -0.15928 0.147496 0.0606732 1.28433 0.528327 0.0660236 0.0271614 -7.87402e-006 0.0714449 -0.000192913 2.61765 -7.87402e-006 0.153685 -0.143724 -0.0538228c-0.1765,-0.0661024 -0.367854,-0.113669 -0.563382,-0.147142z"/>
  <rect class="fil1" x="0.853333" y="0.85333" width="5.12" height="5.12"/>
  <rect class="fil1" x="0.853331" y="0.853331" width="5.12" height="5.12"/>
  <rect class="fil1" width="6.82666" height="6.82666"/>
 </g>
 <rect class="fil1" width="6.82666" height="6.82666"/>
</svg>
