<?xml version="1.0" encoding="UTF-8"?>
<!DOCTYPE svg PUBLIC "-//W3C//DTD SVG 1.1//EN" "http://www.w3.org/Graphics/SVG/1.1/DTD/svg11.dtd">
<!-- Creator: CorelDRAW -->
<svg xmlns="http://www.w3.org/2000/svg" xml:space="preserve" width="6.82666in" height="6.82666in" style="shape-rendering:geometricPrecision; text-rendering:geometricPrecision; image-rendering:optimizeQuality; fill-rule:evenodd; clip-rule:evenodd"
viewBox="0 0 6.82666 6.82666"
 xmlns:xlink="http://www.w3.org/1999/xlink">
 <defs>
  <style type="text/css">
   <![CDATA[
    .fil0 {fill:none}
    .fil1 {fill:#424242}
   ]]>
  </style>
 </defs>
 <g id="Layer_x0020_1">
  <metadata id="CorelCorpID_0Corel-Layer"/>
  <rect class="fil0" x="0.853331" y="0.853331" width="5.12" height="5.12"/>
  <path class="fil1" d="M5.02316 4.40146l-0.00762992 0.0511654c-0.0893425,0.600374 -0.536323,0.574571 -0.955055,0.506972l0.82524 0.861008c0.0242165,0.0240906 0.0624646,0.0118307 0.0688898,-0.0220276l0.10915 -0.578673 0.579031 -0.108118c0.0319803,-0.00601181 0.0445039,-0.0468307 0.0216102,-0.0697244l-0.641236 -0.640602z"/>
  <path class="fil1" d="M4.53894 4.68781c0.0415906,0.00685827 0.0842283,-0.00292913 0.118299,-0.0278543 0.0337953,-0.0247205 0.0571654,-0.0619291 0.0633583,-0.103441 0.0941693,-0.631646 0.0228504,-0.55702 0.622035,-0.856449 0.0374646,-0.0187047 0.0657008,-0.0517087 0.0786457,-0.0914921 0.0131496,-0.0404449 0.00958268,-0.0838189 -0.00991339,-0.121535 -0.305681,-0.591795 -0.305657,-0.466433 -2.3622e-005,-1.05829 0.0195197,-0.0377441 0.0232402,-0.0808898 0.00998819,-0.121335 -0.0128701,-0.0393504 -0.0416654,-0.0730157 -0.0787205,-0.0915669 -0.596091,-0.298126 -0.523953,-0.197339 -0.622012,-0.856602 -0.00614173,-0.0412087 -0.0291063,-0.0785197 -0.062874,-0.102909 -0.034122,-0.0246693 -0.0771417,-0.0352441 -0.118783,-0.0283898 -0.657402,0.108484 -0.538268,0.14661 -1.00678,-0.327252 -0.0270906,-0.0273937 -0.0641181,-0.0463031 -0.10324,-0.0460748 -0.0393976,0.000255906 -0.0768858,0.0183465 -0.104335,0.0461024 -0.468799,0.473728 -0.349453,0.435681 -1.00699,0.327224 -0.0415118,-0.00685433 -0.0847087,0.00372047 -0.118732,0.0283425 -0.0336929,0.0243622 -0.0568071,0.061748 -0.0629213,0.102933 -0.0977559,0.659402 -0.0258425,0.558457 -0.622012,0.856626 -0.0370827,0.0185512 -0.0658543,0.0521654 -0.0786969,0.0915157 -0.0132283,0.0404449 -0.00955906,0.0836654 0.00996457,0.121386 0.307051,0.594693 0.292909,0.491205 -5.11811e-005,1.05829 -0.0194724,0.0377165 -0.0229882,0.0811693 -0.0098622,0.121563 0.0129173,0.0397795 0.0411811,0.0727598 0.0786181,0.0914646 0.596031,0.29785 0.523551,0.197504 0.622878,0.856268 0.00622047,0.0413898 0.0287717,0.0789016 0.0625669,0.10365 0.0339724,0.0248976 0.0767598,0.0346575 0.118248,0.0278268 0.657205,-0.108358 0.539228,-0.146657 1.00707,0.327508 0.0273189,0.0276772 0.0642953,0.0460276 0.103646,0.0460276 0.0394764,0 0.0763268,-0.0181732 0.103776,-0.046 0.46761,-0.474323 0.349705,-0.435933 1.00686,-0.327535zm-1.11072 -2.97089c-0.68213,0 -1.23365,0.560898 -1.23365,1.24109 0,0.680323 0.551697,1.24066 1.2337,1.24104 0.682256,0.00038189 1.23372,-0.56087 1.23372,-1.24104 0,-0.680319 -0.551594,-1.24109 -1.23378,-1.24109z"/>
  <path class="fil1" d="M1.73913 4.39185l0.00762992 0.0511654c0.0893425,0.600374 0.536323,0.574571 0.955055,0.506972l-0.82524 0.861008c-0.0242165,0.0240906 -0.0624646,0.0118307 -0.0688898,-0.0220276l-0.10915 -0.578673 -0.579031 -0.108118c-0.0319803,-0.00601181 -0.0445039,-0.0468307 -0.0216102,-0.0697244l0.641236 -0.640602z"/>
  <rect class="fil0" width="6.82666" height="6.82666"/>
 </g>
 <rect class="fil0" width="6.82666" height="6.82666"/>
</svg>
