<?xml version="1.0" encoding="UTF-8"?>
<!DOCTYPE svg PUBLIC "-//W3C//DTD SVG 1.1//EN" "http://www.w3.org/Graphics/SVG/1.1/DTD/svg11.dtd">
<!-- Creator: CorelDRAW -->
<svg xmlns="http://www.w3.org/2000/svg" xml:space="preserve" width="6.82666in" height="6.82666in" style="shape-rendering:geometricPrecision; text-rendering:geometricPrecision; image-rendering:optimizeQuality; fill-rule:evenodd; clip-rule:evenodd"
viewBox="0 0 6.82666 6.82666"
 xmlns:xlink="http://www.w3.org/1999/xlink">
 <defs>
  <style type="text/css">
   <![CDATA[
    .fil0 {fill:none}
    .fil1 {fill:#424242}
    .fil2 {fill:#424242;fill-rule:nonzero}
   ]]>
  </style>
 </defs>
 <g id="Layer_x0020_1">
  <metadata id="CorelCorpID_0Corel-Layer"/>
  <rect class="fil0" x="0.853331" y="0.853331" width="5.12" height="5.12"/>
  <g id="_274817184">
   <path id="_274817904" class="fil1" d="M1.81333 0.853331l3.30668 0 0 0.106669 0 4.48 -1.89628 0 0 -0.20363c0.209701,-0.214488 0.271508,-0.524736 0.16085,-0.807063 -0.115646,-0.295047 -0.387606,-0.482646 -0.705228,-0.482646 -0.318453,0 -0.590941,0.188665 -0.706051,0.484772 -0.109587,0.28189 -0.0475236,0.591083 0.161673,0.804957l0 0.20361 -0.428315 0 0 -4.48 0 -0.106669 0.106669 0zm0.640008 1.70666l1.81333 0 0 0.213339 -1.81333 0 0 -0.213339zm0 -0.853323l1.81333 0 0 0.213339 -1.81333 0 0 -0.213339z"/>
   <path id="_274817520" class="fil2" d="M2.67935 4.05333c0.596028,0 0.878559,0.739327 0.437713,1.13769l0 0.775524 0 0.211335 -0.149441 -0.149441 -0.288272 -0.288272 -0.288272 0.288272 -0.149441 0.149441 0 -0.211335 0 -0.77552c-0.440957,-0.398256 -0.158236,-1.1377 0.437713,-1.1377z"/>
  </g>
  <rect class="fil0" width="6.82666" height="6.82666"/>
 </g>
 <rect class="fil0" width="6.82666" height="6.82666"/>
</svg>
