<?xml version="1.0" encoding="UTF-8"?>
<!DOCTYPE svg PUBLIC "-//W3C//DTD SVG 1.1//EN" "http://www.w3.org/Graphics/SVG/1.1/DTD/svg11.dtd">
<!-- Creator: CorelDRAW -->
<svg xmlns="http://www.w3.org/2000/svg" xml:space="preserve" width="6.82666in" height="6.82666in" style="shape-rendering:geometricPrecision; text-rendering:geometricPrecision; image-rendering:optimizeQuality; fill-rule:evenodd; clip-rule:evenodd"
viewBox="0 0 6.82666 6.82666"
 xmlns:xlink="http://www.w3.org/1999/xlink">
 <defs>
  <style type="text/css">
   <![CDATA[
    .fil0 {fill:none}
    .fil3 {fill:#424242}
    .fil1 {fill:#212121;fill-rule:nonzero}
    .fil2 {fill:#424242;fill-rule:nonzero}
   ]]>
  </style>
 </defs>
 <g id="Layer_x0020_1">
  <metadata id="CorelCorpID_0Corel-Layer"/>
  <rect class="fil0" x="1.06666" y="1.06666" width="4.69334" height="4.69334"/>
  <path class="fil1" d="M5.65468 1.94703c4.72441e-005,0.000586614 7.87402e-006,0.000496063 -0.000145669,-0.000732283l0.00338189 0.0264606 -0.00323622 -0.0257283z"/>
  <path class="fil2" d="M4.98274 2.15481l0.373681 -0.510118 0.0272283 -0.0371732 0.045689 -0.00574409c0.00800394,-0.00100394 0.0159803,-0.00149606 0.0239055,-0.00149606 0.0779134,0 0.17674,0.0519685 0.255236,0.113358 0.0819331,0.0640748 0.149386,0.148965 0.156835,0.205996l5.90551e-005 -7.87402e-006c0.000992126,0.00777165 0.00148031,0.0133661 0.00148031,0.016811l0 0.0339016 -0.0208346 0.0285984c-0.0662598,0.0909528 -0.22828,0.312287 -0.412118,0.563197 -0.397161,0.542079 -0.947248,1.29261 -1.03123,1.4072l-0.0178976 0.0244134 -0.0287717 0.0114213 -0.370165 0.146906 -0.172232 0.0683504 0.0276496 -0.182937 0.0579055 -0.383161 0.00387402 -0.0256575 0.0157087 -0.0214252c0.0497087,-0.0678228 0.21724,-0.296512 0.421575,-0.575445l0.642425 -0.876992z"/>
  <rect class="fil0" x="0.853331" y="0.853331" width="5.12" height="5.12"/>
  <path class="fil3" d="M1.41333 1.17333l2.93334 0c0.0661142,0 0.126138,0.0269724 0.169583,0.0704173 0.0434449,0.0434449 0.0704173,0.103469 0.0704173,0.169583l0 1.10167 -0.332406 0.453776c-0.140508,0.191807 -0.280961,0.383657 -0.421547,0.575406l-0.0312362 0.0426063 -0.121094 0.801268 0.714961 -0.283736 0.0572992 -0.022748 0.0360433 -0.0491614 0.0979803 -0.133657 0 1.11523 0 0.0438346 -0.0316693 0.0315827 -0.641122 0.639346 -0.075 0.031252 -2.42555 0c-0.0661063,0 -0.126138,-0.0269724 -0.169583,-0.0704173 -0.0434449,-0.0434449 -0.0704173,-0.103476 -0.0704173,-0.169583l0 -4.10667c0,-0.0661142 0.0269724,-0.126138 0.0704173,-0.169583 0.0434449,-0.0434449 0.103469,-0.0704173 0.169583,-0.0704173zm0.293335 1.17331l2.24 0 0 0.213339 -2.24 0 0 -0.213339zm0 0.640012l2.24 0 0 0.213339 -2.24 0 0 -0.213339zm0 0.64l1.81333 0 0 0.213339 -1.81333 0 0 -0.213339zm0 0.64l1.81333 0 0 0.213339 -1.81333 0 0 -0.213339z"/>
  <rect class="fil0" width="6.82666" height="6.82666"/>
 </g>
 <rect class="fil0" width="6.82666" height="6.82666"/>
</svg>
