<?xml version="1.0" encoding="UTF-8"?>
<!DOCTYPE svg PUBLIC "-//W3C//DTD SVG 1.1//EN" "http://www.w3.org/Graphics/SVG/1.1/DTD/svg11.dtd">
<!-- Creator: CorelDRAW -->
<svg xmlns="http://www.w3.org/2000/svg" xml:space="preserve" width="6.82666in" height="6.82666in" style="shape-rendering:geometricPrecision; text-rendering:geometricPrecision; image-rendering:optimizeQuality; fill-rule:evenodd; clip-rule:evenodd"
viewBox="0 0 6.82666 6.82666"
 xmlns:xlink="http://www.w3.org/1999/xlink">
 <defs>
  <style type="text/css">
   <![CDATA[
    .fil2 {fill:none}
    .fil0 {fill:#424242}
    .fil1 {fill:#424242;fill-rule:nonzero}
   ]]>
  </style>
 </defs>
 <g id="Layer_x0020_1">
  <metadata id="CorelCorpID_0Corel-Layer"/>
  <path class="fil0" d="M4.92046 5.53421l0 -2.65422c0,-0.0589094 -0.0477598,-0.106669 -0.106669,-0.106669l-2.77944 0c-0.0589094,0 -0.106669,0.0477598 -0.106669,0.106669l0 2.65422c0,0.0589094 0.0477598,0.106669 0.106669,0.106669 0.0619724,0 0.118406,0.025437 0.159374,0.0664055 0.0409685,0.0409724 0.0664055,0.0974016 0.0664055,0.159378 0,0.0589094 0.0477598,0.106669 0.106669,0.106669l2.11454 0c0.0589094,0 0.106669,-0.0477598 0.106669,-0.106669 0,-0.0619764 0.025437,-0.118406 0.0664055,-0.159378 0.0409685,-0.0409685 0.0974016,-0.0664055 0.159374,-0.0664055 0.0589094,0 0.106669,-0.0477598 0.106669,-0.106669zm-2.18972 -1.61047c0,-0.0589094 0.0477598,-0.106669 0.106669,-0.106669l1.17333 0c0.0589094,0 0.106669,0.0477598 0.106669,0.106669 0,0.0589094 -0.0477598,0.106669 -0.106669,0.106669l-1.17333 0c-0.0589094,0 -0.106669,-0.0477598 -0.106669,-0.106669zm0 0.607811c0,-0.0589094 0.0477598,-0.106669 0.106669,-0.106669l1.17333 0c0.0589094,0 0.106669,0.0477598 0.106669,0.106669 0,0.0589094 -0.0477598,0.106669 -0.106669,0.106669l-1.17333 0c-0.0589094,0 -0.106669,-0.0477598 -0.106669,-0.106669z"/>
  <path class="fil1" d="M2.01273 1.21325l0.657154 -0.0434764 -1.1811e-005 -0.000204724c0.0572677,-0.00379134 0.106961,0.0383583 0.113075,0.0948858l0.282047 1.4022 -0.889594 0 -0.266669 -1.32578 -0.000433071 8.66142e-005c-0.0116142,-0.057752 0.0257874,-0.113996 0.0835394,-0.12561 0.00701181,-0.00140945 0.0140039,-0.00209449 0.0208937,-0.00211024zm0.428945 1.28426c-0.0184094,0 -0.0333346,0.0149252 -0.0333346,0.0333346 0,0.0184094 0.0149252,0.0333346 0.0333346,0.0333346l0.16178 0c0.0184094,0 0.0333346,-0.0149252 0.0333346,-0.0333346 0,-0.0184094 -0.0149252,-0.0333346 -0.0333346,-0.0333346l-0.16178 0zm-0.0166614 -0.130429c-0.0184094,0 -0.0333346,0.0149252 -0.0333346,0.0333346 0,0.0184094 0.0149252,0.0333346 0.0333346,0.0333346l0.201122 0c0.0184094,0 0.0333346,-0.0149252 0.0333346,-0.0333346 0,-0.0184094 -0.0149252,-0.0333346 -0.0333346,-0.0333346l-0.201122 0zm-0.0466496 -0.130429c-0.0184094,0 -0.0333346,0.0149252 -0.0333346,0.0333346 0,0.0184094 0.0149252,0.0333346 0.0333346,0.0333346l0.16178 0c0.0184094,0 0.0333346,-0.0149252 0.0333346,-0.0333346 0,-0.0184094 -0.0149252,-0.0333346 -0.0333346,-0.0333346l-0.16178 0zm-0.0216575 -0.130429c-0.0184094,0 -0.0333346,0.0149252 -0.0333346,0.0333346 0,0.0184094 0.0149252,0.0333346 0.0333346,0.0333346l0.201118 0c0.0184094,0 0.0333346,-0.0149252 0.0333346,-0.0333346 0,-0.0184094 -0.0149252,-0.0333346 -0.0333346,-0.0333346l-0.201118 0zm-0.0416535 -0.130429c-0.0184094,0 -0.0333346,0.0149252 -0.0333346,0.0333346 0,0.0184094 0.0149252,0.0333346 0.0333346,0.0333346l0.16178 0c0.0184094,0 0.0333346,-0.0149252 0.0333346,-0.0333346 0,-0.0184094 -0.0149252,-0.0333346 -0.0333346,-0.0333346l-0.16178 0zm-0.0266575 -0.130429c-0.0184094,0 -0.0333346,0.0149252 -0.0333346,0.0333346 0,0.0184094 0.0149252,0.0333346 0.0333346,0.0333346l0.201118 0c0.0184094,0 0.0333346,-0.0149252 0.0333346,-0.0333346 0,-0.0184094 -0.0149252,-0.0333346 -0.0333346,-0.0333346l-0.201118 0zm-0.0366535 -0.130429c-0.0184094,0 -0.0333346,0.0149252 -0.0333346,0.0333346 0,0.0184094 0.0149252,0.0333346 0.0333346,0.0333346l0.16178 0c0.0184094,0 0.0333346,-0.0149252 0.0333346,-0.0333346 0,-0.0184094 -0.0149252,-0.0333346 -0.0333346,-0.0333346l-0.16178 0zm-0.0316575 -0.130433c-0.0184094,0 -0.0333346,0.0149252 -0.0333346,0.0333346 0,0.0184094 0.0149252,0.0333346 0.0333346,0.0333346l0.201122 0c0.0184094,0 0.0333346,-0.0149252 0.0333346,-0.0333346 0,-0.0184094 -0.0149252,-0.0333346 -0.0333346,-0.0333346l-0.201122 0z"/>
  <path class="fil1" d="M3.12277 1.3718c-0.0382008,0.00483071 -0.0652559,0.0397244 -0.0604252,0.0779252 0.00483071,0.0382008 0.0397244,0.0652559 0.0779252,0.0604252l0.165012 -0.0236969 -0.0175315 -0.138346 -0.16498 0.0236929zm0.761205 0.0315472l0.0358583 -0.00514961c0.0382008,-0.00483071 0.065252,-0.0397244 0.0604213,-0.0779252 -0.00483071,-0.0382008 -0.0397205,-0.0652559 -0.0779252,-0.0604252l-0.0358937 0.00515354 0.000311024 0.0023937 0.0172283 0.135953z"/>
  <path class="fil1" d="M3.45484 2.66666l-0.149555 -1.1802 0.578693 -0.0831063 0.160087 1.26331 -0.589224 0zm-0.167087 -1.31855l-0.00243307 -0.0191929c-0.0431811,-0.340795 0.0758543,-0.355567 0.225732,-0.374157l0.0224213 -0.0027874c0.0685394,-0.00987402 0.138634,-0.0123976 0.208051,0.0392835 0.0596378,0.0444016 0.10572,0.125283 0.124913,0.273748l-0.578685 0.0831063z"/>
  <path class="fil1" d="M3.24458 2.42876c0.0036811,0.0291063 0.0302677,0.0497244 0.059374,0.0460433 0.0291063,-0.0036811 0.0497244,-0.0302677 0.0460433,-0.059374l-0.171831 -1.35593c-0.0036811,-0.0291063 -0.0302677,-0.0497244 -0.059374,-0.0460433 -0.0291063,0.0036811 -0.0497244,0.0302677 -0.0460433,0.059374l0.171831 1.35593z"/>
  <path class="fil1" d="M4.17174 2.66666l0.105004 -1.16063 0.586087 0.044878 -0.100941 1.11575 -0.59015 0zm0.114858 -1.27254c0.00170472,-0.011748 0.00540551,-0.0234094 0.0112677,-0.0345039l0.000220472 0.000114173 0.234102 -0.443094c0.0124528,-0.0279488 0.0367677,-0.0503583 0.0685118,-0.0593071 0.0566969,-0.0159803 0.115626,0.0170276 0.131606,0.0737244l-0.102665 0.0289409 0.1025 -0.028752 0.134295 0.476402c0.00351575,0.00990157 0.00560236,0.0204409 0.00602756,0.0313386l-0.585866 -0.0448622z"/>
 </g>
 <rect class="fil2" width="6.82666" height="6.82666"/>
</svg>
