<?xml version="1.0" encoding="UTF-8"?>
<!DOCTYPE svg PUBLIC "-//W3C//DTD SVG 1.1//EN" "http://www.w3.org/Graphics/SVG/1.1/DTD/svg11.dtd">
<!-- Creator: CorelDRAW -->
<svg xmlns="http://www.w3.org/2000/svg" xml:space="preserve" width="6.82666in" height="6.82666in" style="shape-rendering:geometricPrecision; text-rendering:geometricPrecision; image-rendering:optimizeQuality; fill-rule:evenodd; clip-rule:evenodd"
viewBox="0 0 6.82666 6.82666"
 xmlns:xlink="http://www.w3.org/1999/xlink">
 <defs>
  <style type="text/css">
   <![CDATA[
    .fil1 {fill:none}
    .fil0 {fill:#424242;fill-rule:nonzero}
   ]]>
  </style>
 </defs>
 <g id="Layer_x0020_1">
  <metadata id="CorelCorpID_0Corel-Layer"/>
  <g id="_335788224">
   <path id="_335790768" class="fil0" d="M1.75268 1.8288l3.3213 0c0.0589094,0 0.106669,0.0477598 0.106669,0.106669l0 2.03915c0,0.0589094 -0.0477598,0.106669 -0.106669,0.106669l-3.3213 0c-0.0589094,0 -0.106669,-0.0477598 -0.106669,-0.106669l0 -2.03915c0,-0.0589094 0.0477598,-0.106669 0.106669,-0.106669zm3.21463 0.213339l-3.10796 0 0 1.82581 3.10796 0 0 -1.82581z"/>
   <path id="_335790720" class="fil0" d="M2.54537 4.99786l-1.58537 0 0 -7.87402e-006c-0.0294016,-1.1811e-005 -0.0586614,-0.0120984 -0.0797283,-0.0357992 -0.0391339,-0.0440315 -0.0351654,-0.111457 0.00886614,-0.150591l8.26772e-005 9.44882e-005 0.788917 -0.701177c0.0192323,-0.0187913 0.0455276,-0.0303819 0.0745394,-0.0303819l7.87402e-006 0 3.32129 0 7.87402e-006 0 0 7.87402e-006c0.0252165,-7.87402e-006 0.0505354,0.0088622 0.0708622,0.0269331l-0.0708622 0.0797283 0.0708346 -0.0795827 0.788787 0.701067c0.0242244,0.0195551 0.0397244,0.0494843 0.0397244,0.0830394 0,0.0589094 -0.0477598,0.106669 -0.106669,0.106669l-1.58537 0 -1.73593 0zm0.215543 -0.0918425l1.30484 0 -0.165181 -0.280579 -0.97448 0 -0.165181 0.280579z"/>
   <g>
    <path id="_335790048" class="fil0" d="M4.19676 2.32502c-0.219575,-0.0377874 -0.429846,0.0363937 -0.637429,0.109634 -0.052937,0.0186811 -0.105701,0.0372992 -0.157878,0.0537402l0.011874 0.038122 -0.0120236 -0.0381496c-0.0173268,0.00546063 -0.028315,0.021626 -0.0279764,0.0389134l0 0.881063c0,0.0220906 0.0179094,0.04 0.04,0.04 0.00447244,0 0.00877165,-0.000732283 0.0127874,-0.00208661 0.0803031,-0.0198031 0.160217,-0.0464016 0.239469,-0.0727756 0.179992,-0.0599055 0.356449,-0.11863 0.518736,-0.087748l-1.9685e-005 9.84252e-005c0.0217008,0.00413386 0.0426496,-0.0101024 0.0467835,-0.0318031 0.000519685,-0.00273228 0.000748031,-0.00545276 0.000708661,-0.00812992l0 -0.822425 0 -0.0587598c0,-0.0204055 -0.0152835,-0.0372441 -0.0350315,-0.0396929zm-0.135433 0.17926c0.0108307,0.00202756 0.0179646,0.0124528 0.0159409,0.0232795 -0.00202756,0.0108307 -0.0124528,0.0179646 -0.0232835,0.015937 -0.132102,-0.0249291 -0.264413,0.0254134 -0.39502,0.0751102 -0.0348622,0.0132638 -0.0696063,0.0264882 -0.105098,0.0385472 -0.0104409,0.00353937 -0.0217756,-0.00205906 -0.025311,-0.0125 -0.00353937,-0.0104409 0.00205906,-0.0217756 0.0125,-0.025311 0.0338858,-0.0115157 0.0687323,-0.0247756 0.103689,-0.0380787 0.135799,-0.0516732 0.273362,-0.104016 0.416583,-0.0769843zm-0.00432677 0.139201c0.0108307,0.00202756 0.0179646,0.0124528 0.015937,0.0232795 -0.00202756,0.0108307 -0.0124528,0.0179646 -0.0232795,0.015937 -0.132102,-0.0249291 -0.264413,0.0254134 -0.395024,0.0751102 -0.0348583,0.0132638 -0.0696063,0.0264882 -0.105094,0.0385472 -0.0104409,0.00353937 -0.0217756,-0.00205906 -0.025315,-0.0125 -0.00353543,-0.0104409 0.00205906,-0.0217756 0.0125,-0.025315 0.0338858,-0.0115157 0.0687323,-0.0247717 0.103693,-0.0380748 0.135795,-0.0516732 0.273362,-0.104016 0.416583,-0.0769843zm-0.00433071 0.139201c0.0108307,0.00202756 0.0179646,0.0124528 0.0159409,0.0232795 -0.00202756,0.0108307 -0.0124528,0.0179646 -0.0232835,0.015937 -0.132102,-0.0249291 -0.264413,0.0254134 -0.39502,0.0751102 -0.0348622,0.0132638 -0.0696063,0.0264882 -0.105098,0.0385472 -0.0104409,0.00353543 -0.0217756,-0.00205906 -0.025311,-0.0125 -0.00353937,-0.0104409 0.00205906,-0.0217756 0.0125,-0.025315 0.0338858,-0.0115157 0.0687323,-0.0247717 0.103689,-0.0380748 0.135799,-0.0516732 0.273362,-0.104016 0.416583,-0.0769843zm-0.00432677 0.139201c0.0108307,0.00202756 0.0179646,0.0124488 0.015937,0.0232795 -0.00202756,0.0108307 -0.0124528,0.0179646 -0.0232795,0.015937 -0.132102,-0.0249291 -0.264413,0.0254134 -0.395024,0.0751102 -0.0348583,0.0132638 -0.0696063,0.0264882 -0.105094,0.0385472 -0.0104409,0.00353543 -0.0217756,-0.00205906 -0.025315,-0.0125 -0.00353543,-0.0104409 0.00205906,-0.0217756 0.0125,-0.025315 0.0338858,-0.0115157 0.0687323,-0.0247717 0.103693,-0.0380748 0.135795,-0.0516732 0.273362,-0.104016 0.416583,-0.0769843zm-0.00433071 0.139201c0.0108307,0.00202756 0.0179646,0.0124488 0.0159409,0.0232795 -0.00202756,0.0108307 -0.0124528,0.0179646 -0.0232835,0.015937 -0.132102,-0.0249291 -0.264413,0.0254134 -0.39502,0.0751102 -0.0348622,0.0132638 -0.0696063,0.0264882 -0.105098,0.0385472 -0.0104409,0.00353543 -0.0217756,-0.00205906 -0.025311,-0.0125 -0.00353937,-0.0104409 0.00205906,-0.0217756 0.0125,-0.025315 0.0338858,-0.0115157 0.0687323,-0.0247717 0.103689,-0.0380748 0.135799,-0.0516732 0.273362,-0.104016 0.416583,-0.0769843z"/>
    <path id="_335787984" class="fil0" d="M2.62989 2.32524c0.219571,-0.0377874 0.429846,0.0363937 0.637429,0.109638 0.052937,0.0186772 0.105701,0.0372953 0.157878,0.0537362l-0.011874 0.038126 0.0120197 -0.0381496c0.0173307,0.00546063 0.0283189,0.021626 0.0279803,0.0389134l0 0.881059c0,0.0220906 -0.0179094,0.04 -0.04,0.04 -0.00447244,0 -0.00877165,-0.000732283 -0.0127874,-0.00208661 -0.0803071,-0.0197992 -0.16022,-0.0463976 -0.239472,-0.0727717 -0.179988,-0.0599055 -0.356449,-0.118634 -0.518732,-0.087752l1.5748e-005 9.84252e-005c-0.0216969,0.0041378 -0.0426457,-0.0101024 -0.0467795,-0.0318031 -0.000523622,-0.00273228 -0.000748031,-0.00545276 -0.000708661,-0.00812992l0 -0.822421 0 -0.0587598c0,-0.0204094 0.0152835,-0.037248 0.0350315,-0.0396969zm0.135429 0.17926c-0.0108268,0.00202756 -0.0179646,0.0124528 -0.015937,0.0232835 0.00202756,0.0108268 0.0124528,0.0179646 0.0232835,0.015937 0.132102,-0.0249331 0.264409,0.0254094 0.39502,0.0751102 0.0348583,0.0132638 0.0696063,0.0264843 0.105098,0.0385472 0.0104409,0.00353543 0.0217756,-0.00206299 0.025311,-0.0125039 0.00353937,-0.0104409 -0.00205906,-0.0217717 -0.0125,-0.025311 -0.0338858,-0.0115157 -0.0687323,-0.0247756 -0.103693,-0.0380787 -0.135795,-0.0516693 -0.273362,-0.104012 -0.416583,-0.0769843zm0.00433071 0.139201c-0.0108307,0.00202756 -0.0179646,0.0124528 -0.015937,0.0232835 0.00202756,0.0108268 0.0124488,0.0179646 0.0232795,0.015937 0.132102,-0.0249331 0.264413,0.0254094 0.395024,0.0751102 0.0348583,0.0132638 0.0696063,0.0264843 0.105094,0.0385472 0.0104409,0.00353543 0.0217756,-0.00206299 0.025315,-0.0125039 0.00353543,-0.0104409 -0.00206299,-0.0217717 -0.0125039,-0.025311 -0.0338858,-0.0115157 -0.0687283,-0.0247756 -0.103689,-0.0380787 -0.135799,-0.0516693 -0.273362,-0.104012 -0.416583,-0.0769843zm0.00432677 0.139201c-0.0108268,0.00202756 -0.0179646,0.0124528 -0.015937,0.0232835 0.00202756,0.0108268 0.0124528,0.0179646 0.0232835,0.015937 0.132102,-0.0249331 0.264409,0.0254094 0.39502,0.0751102 0.0348583,0.0132638 0.0696063,0.0264843 0.105098,0.0385433 0.0104409,0.00353937 0.0217756,-0.00205906 0.025311,-0.0125 0.00353937,-0.0104409 -0.00205906,-0.0217756 -0.0125,-0.025311 -0.0338858,-0.0115157 -0.0687323,-0.0247756 -0.103693,-0.0380787 -0.135795,-0.0516693 -0.273362,-0.104012 -0.416583,-0.0769843zm0.00433071 0.139201c-0.0108307,0.00202756 -0.0179646,0.0124528 -0.015937,0.0232835 0.00202756,0.0108268 0.0124488,0.0179646 0.0232795,0.015937 0.132102,-0.0249331 0.264413,0.0254094 0.395024,0.0751102 0.0348583,0.0132638 0.0696063,0.0264843 0.105094,0.0385433 0.0104409,0.00353937 0.0217756,-0.00205906 0.025315,-0.0125 0.00353543,-0.0104409 -0.00206299,-0.0217756 -0.0125039,-0.025311 -0.0338858,-0.0115157 -0.0687283,-0.0247756 -0.103689,-0.0380787 -0.135799,-0.0516693 -0.273362,-0.104012 -0.416583,-0.0769843zm0.00432677 0.139201c-0.0108268,0.00202756 -0.0179646,0.0124528 -0.015937,0.0232835 0.00202756,0.0108268 0.0124528,0.0179646 0.0232835,0.015937 0.132102,-0.0249331 0.264409,0.0254094 0.39502,0.0751102 0.0348583,0.0132638 0.0696063,0.0264843 0.105098,0.0385433 0.0104409,0.00353937 0.0217756,-0.00205906 0.025311,-0.0125 0.00353937,-0.0104409 -0.00205906,-0.0217756 -0.0125,-0.025311 -0.0338858,-0.0115157 -0.0687323,-0.0247756 -0.103693,-0.0380787 -0.135795,-0.0516693 -0.273362,-0.104012 -0.416583,-0.0769843z"/>
    <path id="_335788368" class="fil0" d="M2.55486 2.48233l-0.0615315 0c-0.0220906,0 -0.04,0.0179094 -0.04,0.04l0 0.841268c0,0.0220906 0.0179094,0.04 0.04,0.04 0.228756,0 0.432197,0.0647047 0.600638,0.118283 0.124492,0.0395945 0.230724,0.0733819 0.31902,0.0733819 0.109224,0 0.222736,-0.0378858 0.350276,-0.0804528 0.161232,-0.053815 0.345949,-0.115457 0.565933,-0.111425 0.0013622,0.000137795 0.00274409,0.000212598 0.00414173,0.000212598 0.0220906,0 0.04,-0.0179094 0.04,-0.04l0 -0.841268c0,-0.0220906 -0.0179094,-0.04 -0.04,-0.04l-0.0615394 0 0 0.763575c0,0.00988189 0.000724409,0.00438189 -0.00141732,0.015622 -0.00826772,0.0433622 -0.0501969,0.0718661 -0.093563,0.0636024l-0.00863386 -0.00164567c-0.158161,-0.0265197 -0.341945,0.0386969 -0.489961,0.0879567 -0.0787598,0.0262126 -0.159063,0.0472677 -0.238118,0.0724764 -0.00883465,0.0028189 -0.0174449,0.00464961 -0.0267795,0.00464961 -0.00821654,0 -0.0161102,-0.0013937 -0.0239724,-0.0036811 -0.0805827,-0.0234764 -0.161264,-0.0467165 -0.240917,-0.0732244 -0.148016,-0.0492598 -0.331803,-0.114476 -0.489961,-0.0879606l-0.0086378 0.00164567c-0.0433661,0.00826772 -0.0852953,-0.0202362 -0.093563,-0.0636024 -0.00214173,-0.0112402 -0.00141339,-0.00573622 -0.00141339,-0.015622l0 -0.763791z"/>
    <path id="_335788248" class="fil1" d="M3.55933 2.43466c0.207583,-0.0732402 0.417854,-0.147421 0.637429,-0.109634 0.019748,0.00244882 0.0350315,0.0192874 0.0350315,0.0396929l0 0.0587598 0 0.822425c3.93701e-005,0.00267717 -0.000188976,0.00539764 -0.000708661,0.00812992 -0.00413386,0.0217008 -0.0250827,0.035937 -0.0467835,0.0318031l1.9685e-005 -9.84252e-005c-0.162287,-0.0308819 -0.338744,0.0278425 -0.518736,0.087748 -0.0786457,0.0261732 -0.157949,0.0525669 -0.237638,0.0723228 -0.0045315,0.00177953 -0.00946457,0.00275591 -0.014626,0.00275591 -0.00447244,0 -0.00877165,-0.000732283 -0.0127874,-0.00208661 -0.0803071,-0.0197992 -0.16022,-0.0463976 -0.239472,-0.0727717 -0.179988,-0.0599055 -0.356449,-0.118634 -0.518732,-0.087752l1.5748e-005 9.84252e-005c-0.0216969,0.0041378 -0.0426457,-0.0101024 -0.0467795,-0.0318031 -0.000523622,-0.00273228 -0.000748031,-0.00545276 -0.000708661,-0.00812992l0 -0.822421 0 -0.0587598c0,-0.0204094 0.0152835,-0.037248 0.0350315,-0.0396969 0.219571,-0.0377874 0.429846,0.0363937 0.637429,0.109638 0.048811,0.0172205 0.0974724,0.0343937 0.145665,0.0498543 0.0484173,-0.0155157 0.0973071,-0.0327677 0.14635,-0.0500748z"/>
   </g>
  </g>
 </g>
 <rect class="fil1" width="6.82666" height="6.82666"/>
</svg>
