<?xml version="1.0" encoding="UTF-8"?>
<!DOCTYPE svg PUBLIC "-//W3C//DTD SVG 1.1//EN" "http://www.w3.org/Graphics/SVG/1.1/DTD/svg11.dtd">
<!-- Creator: CorelDRAW -->
<svg xmlns="http://www.w3.org/2000/svg" xml:space="preserve" width="6.82666in" height="6.82666in" style="shape-rendering:geometricPrecision; text-rendering:geometricPrecision; image-rendering:optimizeQuality; fill-rule:evenodd; clip-rule:evenodd"
viewBox="0 0 6.82666 6.82666"
 xmlns:xlink="http://www.w3.org/1999/xlink">
 <defs>
  <style type="text/css">
   <![CDATA[
    .fil1 {fill:none}
    .fil0 {fill:#424242;fill-rule:nonzero}
   ]]>
  </style>
 </defs>
 <g id="Layer_x0020_1">
  <metadata id="CorelCorpID_0Corel-Layer"/>
  <polygon class="fil0" points="2.11508,1.84315 1.06964,2.77919 2.47295,2.77459 3.51839,1.83854 "/>
  <path class="fil0" d="M0.727012 2.80079l1.27648 -1.1429 -0.000291339 -0.000326772c0.0227756,-0.0203937 0.0518898,-0.029189 0.080126,-0.026811l1.71367 -0.00562598 0 -0.000413386c0.0589094,-0.000192913 0.106823,0.0474055 0.107016,0.106315 0.000114173,0.0351654 -0.0168031,0.0664016 -0.0429843,0.0859213l-1.27647 1.1429 0.000291339 0.000326772c-0.0227756,0.0203937 -0.0518937,0.029189 -0.080126,0.026811l-1.71367 0.00562205 0 0.000413386c-0.0589094,0.000192913 -0.106823,-0.0474055 -0.107016,-0.106315 -0.000114173,-0.0351654 0.0168031,-0.0664016 0.0429843,-0.0859213z"/>
  <path class="fil0" d="M1.26863 3.09771l0.221209 0.57585c0.00527559,0.0191614 0.0159528,0.0370787 0.0319055,0.0512756 0.0440039,0.0391614 0.111433,0.0352362 0.150594,-0.00876772l-9.44882e-005 -8.26772e-005c0.0397756,-0.044685 0.20085,-0.104228 0.385945,-0.157807 0.237929,-0.068878 0.503862,-0.121602 0.61861,-0.123169 0.0286575,0.00240551 0.0581929,-0.00670866 0.0810551,-0.0276811l-0.0721102 -0.0786024 0.0720827 0.0783346c0.0809606,-0.0742756 0.319531,-0.217177 0.547563,-0.327819 0.169878,-0.0824252 0.32635,-0.145209 0.388535,-0.141795 0.017622,0.0026378 0.0361457,0.000901575 0.0539646,-0.00594094 0.0549921,-0.021122 0.0824449,-0.0828346 0.0613228,-0.137827l-0.000468504 0.000181102 -0.224929 -0.585535 -0.848815 0.759992 0.000291339 0.000326772 -0.0792953 0.071c-0.0421102,0.0377087 -0.0951772,0.0538268 -0.150929,0.0540118l-1.23644 0.00405512z"/>
  <path class="fil0" d="M1.33122 2.74572c0.028185,0.00816535 0.0576654,-0.00806299 0.0658307,-0.036248 0.00816535,-0.028185 -0.00806299,-0.0576654 -0.036248,-0.0658307 -0.050815,-0.0148622 -0.110654,-0.0100118 -0.168094,0.0124803 -0.0587677,0.0230118 -0.116236,0.0648622 -0.159197,0.123035 -0.0429055,0.0580984 -0.0714803,0.132374 -0.0725906,0.220248 -0.00117717,0.0931181 0.0287126,0.201134 0.106012,0.320217 0.0914134,0.140823 0.156531,0.291819 0.212657,0.421965 0.0447638,0.103803 0.0840079,0.194799 0.128713,0.262469 0.0162205,0.0245039 0.0492441,0.0312205 0.073748,0.015 0.0245039,-0.0162205 0.0312205,-0.0492441 0.015,-0.073748 -0.0390039,-0.0590394 -0.0766299,-0.146283 -0.119547,-0.245807 -0.0575236,-0.13339 -0.12426,-0.288142 -0.221406,-0.437791 -0.0647756,-0.0997874 -0.0898543,-0.187429 -0.0889252,-0.261051 0.000799213,-0.0634685 0.0211732,-0.116756 0.0517559,-0.158169 0.0305276,-0.0413386 0.0711378,-0.0709921 0.112528,-0.0872008 0.0361024,-0.0141378 0.0716654,-0.0177874 0.0997638,-0.00956693z"/>
  <g id="_341861840">
   <path id="_341863040" class="fil0" d="M5.37882 2.22021l8.26772e-005 7.87402e-005 0.000122047 -0.000129921c0.00135433,0.00126772 0.00264961,0.00257087 0.0038937,0.00390945 0.0311654,0.0295709 0.059374,0.0619409 0.0844055,0.0963465 0.0866181,0.119083 0.137299,0.265461 0.142461,0.408 0.00531102,0.146843 -0.0373425,0.290177 -0.138016,0.39802 -0.0212795,0.0227953 -0.0449094,0.0438228 -0.0709528,0.0627677l-1.05476 0.767165 -0.00545669 0.00775591c-0.00807874,-0.0055315 -0.0156969,-0.0115118 -0.0227717,-0.018 -0.0451142,-0.0413504 -0.094622,-0.0913858 -0.144909,-0.142201 -0.181642,-0.183563 -0.373008,-0.376953 -0.60337,-0.396906 -0.00747638,-0.000645669 -0.0147992,-0.000192913 -0.0218031,0.0012126l0.866894 -1.14887c0.011811,-0.0156457 0.0244764,-0.0306811 0.0379173,-0.0450787 0.112189,-0.120173 0.266244,-0.179484 0.425067,-0.183559 0.155874,-0.00399606 0.316823,0.0456181 0.446386,0.14339 0.018748,0.0141496 0.0370551,0.0295157 0.0548031,0.0460866l-0.0524094 0.0563228 0.00571654 -0.00611811 0.0467008 -0.0501929zm-2.14887 2.81611c-0.00859843,-0.12202 -0.0640551,-0.244299 -0.164315,-0.337898 -0.100528,-0.0938425 -0.226327,-0.140898 -0.348433,-0.141098 -0.120272,-0.000200787 -0.237059,0.0450787 -0.321831,0.135886 -0.0847677,0.0908031 -0.121921,0.210433 -0.113465,0.330437 0.00860236,0.12202 0.0640591,0.244299 0.164319,0.337898 0.100528,0.0938465 0.226323,0.140898 0.348433,0.141098 0.120272,0.000200787 0.237059,-0.0450787 0.321831,-0.135886 0.0847677,-0.0908031 0.121921,-0.210433 0.113461,-0.330437zm1.02232 -0.946661l-0.945181 1.34327c-0.0143465,0.0203819 -0.029874,0.0394488 -0.0464528,0.0572087 -0.107701,0.11537 -0.256445,0.17174 -0.410768,0.175898 -0.150535,0.00405512 -0.306992,-0.0421063 -0.434701,-0.131969 -0.0257598,-0.0181299 -0.0504449,-0.0381024 -0.0737559,-0.0598701l0.0524055 -0.0563228 -0.00677165 0.00725591 -0.0456457 0.0490551 -8.26772e-005 -7.08661e-005 -0.000114173 0.000122047c-0.000653543,-0.000606299 -0.0012874,-0.00123228 -0.00191339,-0.00185827l-3.93701e-006 7.87402e-006 -0.00042126 -0.000433071 -0.000807087 -0.000826772 -0.000437008 -0.00046063 -0.000251969 -0.000267717c-0.0143386,-0.0135906 -0.0276969,-0.0273504 -0.0400551,-0.0412165 -0.109681,-0.123047 -0.171661,-0.281906 -0.178469,-0.439846 -0.00691339,-0.160378 0.0427441,-0.320181 0.156622,-0.442161 0.0123661,-0.013248 0.0250118,-0.0256535 0.0379173,-0.0371575l1.17554 -1.04783c-0.00140157,0.00481102 -0.00235433,0.00982677 -0.00279921,0.0150157 -0.00365748,0.0424173 0.0277598,0.0797756 0.0701811,0.0834291 0.174496,0.0151142 0.345386,0.187807 0.507587,0.35172 0.0494685,0.05 0.098185,0.0992283 0.150327,0.147024 0.0120551,0.0110512 0.0247874,0.0211063 0.0380512,0.0302835z"/>
   <path id="_341863280" class="fil0" d="M4.24998 4.08573c0.135535,0.12424 0.319744,0.0984252 0.449976,0.0987402 0.0349961,8.26772e-005 0.0502126,-0.00546063 0.0554016,-0.00266142 0.0374252,0.0201299 0.0840906,0.00610236 0.104217,-0.0313228 0.020126,-0.0374291 0.00610236,-0.0840906 -0.0313268,-0.104217 -0.0280709,-0.0151614 -0.0704213,-0.0152756 -0.128291,-0.0154134 -0.121728,-0.0232244 -0.273583,0.0401457 -0.365193,-0.0696732l-0.0847835 0.124547z"/>
   <path id="_341863064" class="fil0" d="M2.90507 5.73978c0.0879449,0.0129685 0.180004,0.0163031 0.268961,0.00955906 0.190134,-0.0144213 0.370224,-0.0752835 0.474531,-0.187012 0.0256378,-0.0274567 0.0469134,-0.0582638 0.0629685,-0.0925157 0.0318386,-0.0679173 0.0621339,-0.13276 0.0910748,-0.194709 0.306122,-0.655236 0.459492,-0.983508 0.69626,-1.21899 0.237067,-0.235783 0.571055,-0.391449 1.2393,-0.702366l0.00153543 -0.000622047c-0.00143307,0.000677165 -0.000866142,0.000425197 0.000614173,-0.000255906l-0.000614173 0.000255906 0.00288583 -0.00135433 1.9685e-005 3.93701e-005 1.1811e-005 -7.87402e-006 -1.5748e-005 -3.93701e-005 -1.5748e-005 7.87402e-006 1.5748e-005 -7.87402e-006c0.0117953,-0.00553937 0.0551614,-0.025811 0.179799,-0.0839724 0.0297008,-0.0107165 0.0509331,-0.0391535 0.0509331,-0.0725472 0,-0.0425827 -0.0345197,-0.0771063 -0.0771063,-0.0771063l0 0.000299213 -0.318969 -7.87402e-006c-0.0148189,0.0211378 -0.0311772,0.0413976 -0.049122,0.0606142 -0.0249449,0.0267283 -0.0523937,0.0510039 -0.0819606,0.0725079l-1.04441 0.759642 -0.0418898 0.0595472 -3.93701e-006 -7.87402e-006 -0.989724 1.40656c-0.016185,0.0230079 -0.0339488,0.0448898 -0.0531457,0.0654567 -0.109012,0.116776 -0.255571,0.181654 -0.411925,0.197031zm2.83524 -2.38691l0.00229134 -0.00105906 1.9685e-005 3.54331e-005c-0.000767717,0.000354331 -0.00153937,0.000692913 -0.00231102,0.00102362zm0.00230315 -0.00106693c0.00650787,-0.00301181 0.0175906,-0.00817323 7.87402e-006,1.1811e-005l-7.87402e-006 -1.1811e-005z"/>
   <path id="_341861984" class="fil0" d="M4.4745 4.05656c-0.0312717,-0.0286102 -0.0798228,-0.0264488 -0.108433,0.00482283 -0.0286102,0.0312717 -0.0264488,0.0798189 0.0048189,0.108429 0.0769449,0.0705315 0.068248,0.161764 0.0627677,0.219232 -0.00627165,0.0657874 -0.0106929,0.112272 0.0477874,0.143854 0.0374291,0.0201299 0.0840906,0.00610236 0.10422,-0.0313228 0.0189882,-0.035311 0.0075748,-0.0788346 -0.0252047,-0.100551l0.0153307 0.00144882c-0.016685,-0.00505906 -0.044378,-0.0174961 -0.0214528,-0.00511417 0.00211811,0.0011378 0.00415748,0.00236614 0.00612205,0.00366535l0.0153307 0.00144882c0.00609055,0.00184646 0.0107165,0.0027126 0.010878,0.00102756 0.00827165,-0.0867638 0.0214094,-0.2245 -0.112165,-0.346941z"/>
  </g>
 </g>
 <rect class="fil1" width="6.82666" height="6.82666"/>
</svg>
