<?xml version="1.0" encoding="UTF-8"?>
<!DOCTYPE svg PUBLIC "-//W3C//DTD SVG 1.1//EN" "http://www.w3.org/Graphics/SVG/1.1/DTD/svg11.dtd">
<!-- Creator: CorelDRAW -->
<svg xmlns="http://www.w3.org/2000/svg" xml:space="preserve" width="6.82666in" height="6.82666in" style="shape-rendering:geometricPrecision; text-rendering:geometricPrecision; image-rendering:optimizeQuality; fill-rule:evenodd; clip-rule:evenodd"
viewBox="0 0 6.82666 6.82666"
 xmlns:xlink="http://www.w3.org/1999/xlink">
 <defs>
  <style type="text/css">
   <![CDATA[
    .fil2 {fill:none}
    .fil1 {fill:#424242}
    .fil0 {fill:#424242;fill-rule:nonzero}
   ]]>
  </style>
 </defs>
 <g id="Layer_x0020_1">
  <metadata id="CorelCorpID_0Corel-Layer"/>
  <path class="fil0" d="M4.689 1.15039c0.354642,0 0.675728,0.143764 0.908146,0.376181 0.0643976,0.0643976 0.121976,0.13561 0.171587,0.212449l-0.454803 0c-0.0273583,-0.0757205 -0.0603976,-0.148555 -0.0996142,-0.216669 -0.110374,-0.191705 -0.288634,-0.371236 -0.523921,-0.371945l-0.0013937 -1.5748e-005 -0.0013937 1.5748e-005c-0.235283,0.000708661 -0.413547,0.18024 -0.523921,0.371945 -0.0392165,0.0681142 -0.0722559,0.140949 -0.0996142,0.216669l-0.454799 0c0.0496063,-0.0768425 0.107185,-0.148051 0.171583,-0.212449 0.232417,-0.232417 0.553504,-0.376181 0.908146,-0.376181zm0.511902 0.58863l-0.458563 0 0 -0.477874c0.168807,0.0259685 0.298457,0.171768 0.380244,0.313819 0.0299488,0.0520197 0.0559567,0.10702 0.0783189,0.164055zm-0.56524 0l-0.458563 0c0.0223622,-0.0570354 0.0483701,-0.112035 0.0783189,-0.164055 0.0817874,-0.142051 0.211437,-0.28785 0.380244,-0.313819l0 0.477874zm1.19489 0.106669c0.0835472,0.161591 0.133807,0.343181 0.141677,0.535697l-0.55185 0c0,-0.175012 -0.022248,-0.360496 -0.0721142,-0.535697l0.482287 0zm-0.51685 0.535697l-0.571366 0 0 -0.535697 0.495531 0c0.0529685,0.174098 0.0758346,0.360744 0.0758346,0.535697zm-0.678043 0l-0.571366 0c0,-0.174953 0.0228661,-0.361598 0.0758346,-0.535697l0.495531 0 0 0.535697zm-0.678043 0l-0.55185 0c0.00787008,-0.192516 0.058126,-0.374106 0.141677,-0.535697l0.482287 0c-0.0498661,0.175201 -0.0721142,0.360685 -0.0721142,0.535697zm2.01461 0.106669c-0.0078937,0.192335 -0.0582756,0.373937 -0.142035,0.535693l-0.516449 0 0.000338583 -0.000937008c0.0612795,-0.170118 0.0943819,-0.353165 0.103598,-0.534756l0.554547 0zm-0.771496 0.535693l-0.45839 0 0 -0.535693 0.568591 0c-0.00886614,0.169528 -0.0393307,0.340512 -0.0965039,0.499236 -0.00437402,0.0121417 -0.00894094,0.0243031 -0.0136969,0.0364567zm-0.565067 0l-0.365287 0 -0.106563 -0.0365197c-0.0231929,-0.0644291 -0.0418031,-0.130626 -0.0564331,-0.197209 -0.0217874,-0.0991339 -0.0349331,-0.200433 -0.0402874,-0.301965l0.568571 0 0 0.535693zm-1.19432 -0.284098c-0.0198701,-0.0814016 -0.0320039,-0.165547 -0.035563,-0.251594l0.554516 0c0.0055,0.108957 0.0195472,0.217689 0.0429252,0.324071 0.00983465,0.0447402 0.0217598,0.0887874 0.0354646,0.132224l-0.597343 -0.204701zm2.32696 0.390768c-0.00704724,0.0109055 -0.0142441,0.0217087 -0.0216102,0.0323898 -0.0723543,0.104913 -0.159957,0.198531 -0.259591,0.277689l-0.0295709 -0.0101339 -6.29921e-005 0.000185039 -0.299094 -0.102496c0.0438346,-0.0617402 0.0810669,-0.129079 0.112118,-0.197634l0.497811 0zm-1.18665 0l0.0540118 0 0 0.0185079 -0.0540118 -0.0185079zm0.160689 0.0550669l0 -0.0550669 0.411091 0c-0.0284685,0.056874 -0.061689,0.111744 -0.100138,0.161626l-0.310953 -0.106559z"/>
  <path class="fil0" d="M0.924768 3.71713l2.22999 -0.934484 -7.48031e-005 -0.000177165c0.027248,-0.0114173 0.0565551,-0.0106732 0.081874,-0.00023622l2.28689 0.783685 -0.0341654 0.100835 0.0345787 -0.100906c0.0557283,0.0190945 0.0854213,0.0797559 0.0663268,0.135484 -0.0110236,0.0321693 -0.0358937,0.0556614 -0.0656732,0.0661024l-2.22999 0.93448 7.48031e-005 0.000177165c-0.027248,0.0114173 -0.0565512,0.0106732 -0.0818701,0.00023622l-2.28689 -0.783681 0.0341654 -0.100835 -0.0345787 0.100906c-0.0557283,-0.0190945 -0.0854213,-0.0797559 -0.0663268,-0.135484 0.0110236,-0.0321693 0.0358937,-0.0556614 0.0656732,-0.0661024z"/>
  <path class="fil0" d="M1.53861 4.24139l0.0316614 0.94924c-0.000984252,0.0193661 0.00329134,0.0392283 0.0134567,0.0573976 0.0287677,0.0514055 0.0937677,0.0697598 0.145173,0.0409921l-0.0520906 -0.0930827 0.0520827 0.0929173c0.0809803,-0.045315 0.331177,-0.0516457 0.609173,-0.0372756 0.355504,0.018374 0.743602,0.0729134 0.896878,0.125531 0.0257677,0.010689 0.0556732,0.0113189 0.0832874,-0.000645669l-0.000188976 -0.000433071c0.144669,-0.0626378 0.533102,-0.144063 0.891626,-0.186681 0.271657,-0.0322874 0.517811,-0.0428976 0.605984,-0.00566535 0.0159843,0.00855118 0.0343622,0.0131417 0.0537835,0.0124961 0.058874,-0.00196063 0.105012,-0.0512874 0.103051,-0.110161l-0.000362205 1.1811e-005 -0.0319528 -0.958083 -1.50579 0.631 7.87402e-005 0.000181102 -0.0986496 0.0413346c-0.050815,0.0212913 -0.10602,0.0204606 -0.157669,0.00276378l-1.63953 -0.561839z"/>
  <path class="fil0" d="M1.75575 3.86202c0.0239291,0.0170276 0.0571417,0.0114291 0.0741693,-0.0125 0.0170276,-0.0239291 0.0114291,-0.0571417 -0.0125,-0.0741693 -0.0567874,-0.0403701 -0.133878,-0.0600787 -0.216055,-0.0568071 -0.0850591,0.00338976 -0.176689,0.0313071 -0.256957,0.0863661 -0.0802874,0.0550709 -0.149496,0.137205 -0.189791,0.248969 -0.0431102,0.119555 -0.0526929,0.272657 -0.00590945,0.461913 0.0573268,0.231906 0.0744094,0.463169 0.0891339,0.662512 0.0116732,0.158106 0.0219173,0.296693 0.0494685,0.404425 0.00724803,0.0285315 0.0362598,0.0457874 0.0647913,0.0385394 0.0285315,-0.00724803 0.0457874,-0.0362598 0.0385394,-0.0647913 -0.0253937,-0.0992913 -0.0352795,-0.233059 -0.0465472,-0.385669 -0.0150197,-0.20337 -0.0324488,-0.439311 -0.0920551,-0.680433 -0.0413228,-0.167157 -0.0338976,-0.2995 0.00257874,-0.400661 0.031937,-0.0885787 0.0865394,-0.153504 0.149791,-0.19689 0.0632756,-0.0434055 0.134953,-0.0653898 0.201122,-0.0680276 0.0590669,-0.00235039 0.112713,0.0105591 0.15022,0.0372244z"/>
  <path class="fil1" d="M1.33417 5.33333l0 0c0.0884606,0 0.160835,0.072374 0.160835,0.160835l0 0.332543 -0.0998976 -0.13585 -0.0527283 0.24735 -0.0858504 -0.240961 -0.0831929 0.129461 0 -0.332543c0,-0.0884606 0.072374,-0.160835 0.160835,-0.160835z"/>
 </g>
 <rect class="fil2" width="6.82666" height="6.82666"/>
</svg>
